<svg width="26" height="22" viewBox="0 0 26 22" fill="none" xmlns="http://www.w3.org/2000/svg">
    <path d="M5.813 0C2.647 0 0 2.648 0 5.813V16.188C0 19.352 2.648 22 5.813 22H20.188C23.352 22 26 19.352 26 16.187V5.813C26 2.649 23.352 0 20.187 0H5.813ZM5.813 2H20.188C22.223 2 24 3.777 24 5.813V7H18C17.445 7 17 6.555 17 6C17 5.445 17.445 5 18 5C18.2652 5 18.5196 4.89464 18.7071 4.70711C18.8946 4.51957 19 4.26522 19 4C19 3.73478 18.8946 3.48043 18.7071 3.29289C18.5196 3.10536 18.2652 3 18 3C16.355 3 15 4.355 15 6C15 7.292 15.844 8.394 17 8.813V13.781C15.802 14.595 15 15.961 15 17.5C15 18.423 15.293 19.281 15.781 20H10.22C10.7255 19.2641 10.9973 18.3928 11 17.5C11 15.962 10.198 14.595 9 13.781V8.812C10.156 8.394 11 7.292 11 6C11 4.355 9.645 3 8 3H6C5.96868 2.99853 5.93732 2.99853 5.906 3C5.87502 2.99856 5.84398 2.99856 5.813 3C5.54778 3.0248 5.30328 3.15394 5.13328 3.35901C4.96328 3.56408 4.8817 3.82828 4.9065 4.0935C4.9313 4.35872 5.06044 4.60322 5.26551 4.77322C5.47058 4.94322 5.73478 5.0248 6 5H8C8.555 5 9 5.445 9 6C9 6.555 8.555 7 8 7H2V5.812C2 3.777 3.777 2 5.813 2ZM2 9H7V13H2V9ZM19 9H24V13H19V9ZM2 15H6.5C7.839 15 9 16.161 9 17.5C9 18.839 7.839 20 6.5 20H5.812C3.777 20 2 18.223 2 16.187V15ZM19.5 15H24V16.188C24 18.223 22.223 20 20.187 20H19.5C18.161 20 17 18.839 17 17.5C17 16.161 18.161 15 19.5 15Z" fill="white"/>
</svg>
